<svg width="993" height="904" viewBox="140 70 893 804" fill="none" xmlns="http://www.w3.org/2000/svg">
<circle cx="395.21" cy="199.207" r="77.4687" transform="rotate(123.568 395.21 199.207)" fill="url(#paint0_linear_724_13)"/>
<circle cx="355.292" cy="308.69" r="160.279" transform="rotate(120.109 355.292 308.69)" fill="url(#paint1_linear_724_13)"/>
<circle cx="431.87" cy="425.191" r="232.264" transform="rotate(-30.2768 431.87 425.191)" fill="url(#paint2_linear_724_13)"/>
<circle cx="593.624" cy="566.536" r="160.279" transform="rotate(-57.5084 593.624 566.536)" fill="url(#paint3_linear_724_13)"/>
<circle cx="550.845" cy="398.972" r="232.264" transform="rotate(161.609 550.845 398.972)" fill="url(#paint4_linear_724_13)"/>
<circle cx="496.037" cy="652.808" r="53.9564" transform="rotate(65.7854 496.037 652.808)" fill="url(#paint5_linear_724_13)"/>
<defs>
<linearGradient id="paint0_linear_724_13" x1="395.21" y1="121.738" x2="351.08" y2="266.368" gradientUnits="userSpaceOnUse">
<stop offset="0.0165471" stop-color="#FFC065"/>
<stop offset="1" stop-color="#A780F9" stop-opacity="0"/>
</linearGradient>
<linearGradient id="paint1_linear_724_13" x1="355.292" y1="148.411" x2="263.99" y2="447.643" gradientUnits="userSpaceOnUse">
<stop offset="0.0165471" stop-color="#A780F9"/>
<stop offset="1" stop-color="#A780F9" stop-opacity="0"/>
</linearGradient>
<linearGradient id="paint2_linear_724_13" x1="431.87" y1="192.927" x2="299.562" y2="626.552" gradientUnits="userSpaceOnUse">
<stop offset="0.0165471" stop-color="#20D4C9"/>
<stop offset="1" stop-color="#A780F9" stop-opacity="0"/>
</linearGradient>
<linearGradient id="paint3_linear_724_13" x1="593.624" y1="406.257" x2="502.321" y2="705.489" gradientUnits="userSpaceOnUse">
<stop offset="0.0165471" stop-color="#A780F9"/>
<stop offset="1" stop-color="#A780F9" stop-opacity="0"/>
</linearGradient>
<linearGradient id="paint4_linear_724_13" x1="550.845" y1="166.708" x2="418.537" y2="600.332" gradientUnits="userSpaceOnUse">
<stop offset="0.0165471" stop-color="#20D4C9"/>
<stop offset="1" stop-color="#A780F9" stop-opacity="0"/>
</linearGradient>
<linearGradient id="paint5_linear_724_13" x1="496.037" y1="598.851" x2="465.301" y2="699.585" gradientUnits="userSpaceOnUse">
<stop offset="0.0165471" stop-color="#FFC065"/>
<stop offset="1" stop-color="#A780F9" stop-opacity="0"/>
</linearGradient>
</defs>
</svg>
